HIERARCHY
ROOT hips
{
  OFFSET 0 10.6860622 2.3727825e-15
  CHANNELS 6 Xposition Yposition Zposition Yrotation Xrotation Zrotation
  JOINT leftUpperLeg
  {
    OFFSET 0.6642549969 -0.9402397400000004 0
    CHANNELS 3 Yrotation Xrotation Zrotation
    JOINT leftLowerLeg
    {
      OFFSET 0 -3.997221335632195 0
      CHANNELS 3 Yrotation Xrotation Zrotation
      JOINT leftFoot
      {
        OFFSET -0.13777839790000004 -4.6145792000000005 -0.22186036399999998
        CHANNELS 3 Yrotation Xrotation Zrotation
        JOINT leftToes
        {
          OFFSET -0.03777410834999995 -0.9130806927000008 0.85230013
          CHANNELS 3 Yrotation Xrotation Zrotation
          End Site
          {
            OFFSET -0.03777410834999995 -0.9130806927000008 0.85230013
          }
        }
      }
    }
  }
  JOINT rightUpperLeg
  {
    OFFSET -0.6642778626 -0.9402397400000004 0
    CHANNELS 3 Yrotation Xrotation Zrotation
    JOINT rightLowerLeg
    {
      OFFSET 0 -3.997221452859387 0
      CHANNELS 3 Yrotation Xrotation Zrotation
      JOINT rightFoot
      {
        OFFSET 0.1377926176 -4.6145792000000005 -0.22185782299999995
        CHANNELS 3 Yrotation Xrotation Zrotation
        JOINT rightToes
        {
          OFFSET 0.037780746850000047 -0.9130806927000008 0.85230167
          CHANNELS 3 Yrotation Xrotation Zrotation
          End Site
          {
            OFFSET 0.037780746850000047 -0.9130806927000008 0.85230167
          }
        }
      }
    }
  }
  JOINT spine
  {
    OFFSET 0 0.13988381660000015 0
    CHANNELS 3 Yrotation Xrotation Zrotation
    JOINT chest
    {
      OFFSET 0 0.6191039003973773 0
      CHANNELS 3 Yrotation Xrotation Zrotation
      JOINT upperChest
      {
        OFFSET 0 0.9855186130586943 0
        CHANNELS 3 Yrotation Xrotation Zrotation
        JOINT leftShoulder
        {
          OFFSET 0.1807663869 1.5087829790000005 0
          CHANNELS 3 Yrotation Xrotation Zrotation
          JOINT leftUpperArm
          {
            OFFSET 0.5985063006419806 0 0
            CHANNELS 3 Yrotation Xrotation Zrotation
            JOINT leftLowerArm
            {
              OFFSET 2.2993332369501065 0 0
              CHANNELS 3 Yrotation Xrotation Zrotation
              JOINT leftHand
              {
                OFFSET 2.395047042602395 0 0
                CHANNELS 3 Yrotation Xrotation Zrotation
                JOINT leftIndexProximal
                {
                  OFFSET 0.5766295810000004 0.04556643899499946 0.17265095988184
                  CHANNELS 3 Yrotation Xrotation Zrotation
                  JOINT leftIndexIntermediate
                  {
                    OFFSET 0.2957229000000008 -0.019352197700001517 -0.007932640616999987
                    CHANNELS 3 Yrotation Xrotation Zrotation
                    JOINT leftIndexDistal
                    {
                      OFFSET 0.19008243099999922 -0.012484908149998475 -0.002786250786000012
                      CHANNELS 3 Yrotation Xrotation Zrotation
                      End Site
                      {
                        OFFSET 0.19008243099999922 -0.012484908149998475 -0.002786250786000012
                      }
                    }
                  }
                }
                JOINT leftMiddleProximal
                {
                  OFFSET 0.5834975091000001 0.0524350405149987 0.02204081888183999
                  CHANNELS 3 Yrotation Xrotation Zrotation
                  JOINT leftMiddleIntermediate
                  {
                    OFFSET 0.33880573540000003 -0.019871473270000717 -0.00000971183179999946
                    CHANNELS 3 Yrotation Xrotation Zrotation
                    JOINT leftMiddleDistal
                    {
                      OFFSET 0.20676022730000088 -0.012221336379999448 0.0001471936708000235
                      CHANNELS 3 Yrotation Xrotation Zrotation
                      End Site
                      {
                        OFFSET 0.20676022730000088 -0.012221336379999448 0.0001471936708000235
                      }
                    }
                  }
                }
                JOINT leftLittleProximal
                {
                  OFFSET 0.5344154683999995 -0.012880921405001189 -0.24414037221816004
                  CHANNELS 3 Yrotation Xrotation Zrotation
                  JOINT leftLittleIntermediate
                  {
                    OFFSET 0.21758961730000093 -0.011650919939999227 0.011893592810000034
                    CHANNELS 3 Yrotation Xrotation Zrotation
                    JOINT leftLittleDistal
                    {
                      OFFSET 0.1475273964999999 -0.008152365682999818 0.006001092492999946
                      CHANNELS 3 Yrotation Xrotation Zrotation
                      End Site
                      {
                        OFFSET 0.1475273964999999 -0.008152365682999818 0.006001092492999946
                      }
                    }
                  }
                }
                JOINT leftRingProximal
                {
                  OFFSET 0.5799399463000003 0.026911854694997794 -0.12150566991816003
                  CHANNELS 3 Yrotation Xrotation Zrotation
                  JOINT leftRingIntermediate
                  {
                    OFFSET 0.26167887460000006 -0.013480186499999602 0.010996293000000053
                    CHANNELS 3 Yrotation Xrotation Zrotation
                    JOINT leftRingDistal
                    {
                      OFFSET 0.17667108799999987 -0.008990287899999228 0.0055541023999999065
                      CHANNELS 3 Yrotation Xrotation Zrotation
                      End Site
                      {
                        OFFSET 0.17667108799999987 -0.008990287899999228 0.0055541023999999065
                      }
                    }
                  }
                }
                JOINT leftThumbProximal
                {
                  OFFSET 0.11018806699999972 -0.09448718900500053 0.17047963138184
                  CHANNELS 3 Yrotation Xrotation Zrotation
                  JOINT leftThumbIntermediate
                  {
                    OFFSET 0.31062601459999983 -0.08126270900000132 0.15443142000000007
                    CHANNELS 3 Yrotation Xrotation Zrotation
                    JOINT leftThumbDistal
                    {
                      OFFSET 0.21627175790000086 -0.08833193599999878 0.018771167799999988
                      CHANNELS 3 Yrotation Xrotation Zrotation
                      End Site
                      {
                        OFFSET 0.21627175790000086 -0.08833193599999878 0.018771167799999988
                      }
                    }
                  }
                }
              }
            }
          }
        }
        JOINT neck
        {
          OFFSET 0 1.5463305265074576 0
          CHANNELS 3 Yrotation Xrotation Zrotation
          JOINT head
          {
            OFFSET 0 0.8456443600000344 0
            CHANNELS 3 Yrotation Xrotation Zrotation
            JOINT leftEye
            {
              OFFSET 0.30408573140000006 0.5104519199999995 0.1276382305
              CHANNELS 3 Yrotation Xrotation Zrotation
              End Site
              {
                OFFSET 0.30408573140000006 0.5104519199999995 0.1276382305
              }
            }
            JOINT rightEye
            {
              OFFSET -0.30409491089999996 0.5104519199999995 0.1276379445
              CHANNELS 3 Yrotation Xrotation Zrotation
              End Site
              {
                OFFSET -0.30409491089999996 0.5104519199999995 0.1276379445
              }
            }
            JOINT jaw
            {
              OFFSET -3.155239131000001e-7 -0.11984121820000082 0.60178107
              CHANNELS 3 Yrotation Xrotation Zrotation
              End Site
              {
                OFFSET -3.155239131000001e-7 -0.11984121820000082 0.60178107
              }
            }
          }
        }
        JOINT rightShoulder
        {
          OFFSET -0.1807303465 1.5087829790000005 0
          CHANNELS 3 Yrotation Xrotation Zrotation
          JOINT rightUpperArm
          {
            OFFSET -0.5985063796536958 0 0
            CHANNELS 3 Yrotation Xrotation Zrotation
            JOINT rightLowerArm
            {
              OFFSET -2.2993322059002854 0 0
              CHANNELS 3 Yrotation Xrotation Zrotation
              JOINT rightHand
              {
                OFFSET -2.395045314457259 0 0
                CHANNELS 3 Yrotation Xrotation Zrotation
                JOINT rightIndexProximal
                {
                  OFFSET -0.5764487688300002 0.0441371204405987 0.17361932004999997
                  CHANNELS 3 Yrotation Xrotation Zrotation
                  JOINT rightIndexIntermediate
                  {
                    OFFSET -0.29573011380000047 -0.01934826376999843 -0.007698921482999974
                    CHANNELS 3 Yrotation Xrotation Zrotation
                    JOINT rightIndexDistal
                    {
                      OFFSET -0.19008373999999884 -0.012503266380000655 -0.0026365778999999897
                      CHANNELS 3 Yrotation Xrotation Zrotation
                      End Site
                      {
                        OFFSET -0.19008373999999884 -0.012503266380000655 -0.0026365778999999897
                      }
                    }
                  }
                }
                JOINT rightMiddleProximal
                {
                  OFFSET -0.5834852037300005 0.05211639405060153 0.02307162440000001
                  CHANNELS 3 Yrotation Xrotation Zrotation
                  JOINT rightMiddleIntermediate
                  {
                    OFFSET -0.33880114510000003 -0.019952774050000954 0.0002455003561999819
                    CHANNELS 3 Yrotation Xrotation Zrotation
                    JOINT rightMiddleDistal
                    {
                      OFFSET -0.20675694929999955 -0.012273788999999091 0.00030209124000002766
                      CHANNELS 3 Yrotation Xrotation Zrotation
                      End Site
                      {
                        OFFSET -0.20675694929999955 -0.012273788999999091 0.00030209124000002766
                      }
                    }
                  }
                }
                JOINT rightLittleProximal
                {
                  OFFSET -0.5346811737299992 -0.011214256288399227 -0.24363941305000003
                  CHANNELS 3 Yrotation Xrotation Zrotation
                  JOINT rightLittleIntermediate
                  {
                    OFFSET -0.21757715980000092 -0.011771559690000988 0.01201554387
                    CHANNELS 3 Yrotation Xrotation Zrotation
                    JOINT rightLittleDistal
                    {
                      OFFSET -0.1475201849000004 -0.00822055339600003 0.006082065407000015
                      CHANNELS 3 Yrotation Xrotation Zrotation
                      End Site
                      {
                        OFFSET -0.1475201849000004 -0.00822055339600003 0.006082065407000015
                      }
                    }
                  }
                }
                JOINT rightRingProximal
                {
                  OFFSET -0.5800810755299999 0.027657985680600072 -0.12066365025000003
                  CHANNELS 3 Yrotation Xrotation Zrotation
                  JOINT rightRingIntermediate
                  {
                    OFFSET -0.26166445029999974 -0.013623118409999302 0.011164098990000045
                    CHANNELS 3 Yrotation Xrotation Zrotation
                    JOINT rightRingDistal
                    {
                      OFFSET -0.17666387530000027 -0.009072900100000503 0.005668185599999959
                      CHANNELS 3 Yrotation Xrotation Zrotation
                      End Site
                      {
                        OFFSET -0.17666387530000027 -0.009072900100000503 0.005668185599999959
                      }
                    }
                  }
                }
                JOINT rightThumbProximal
                {
                  OFFSET -0.10997596379000074 -0.09577489355940072 0.16989765924999997
                  CHANNELS 3 Yrotation Xrotation Zrotation
                  JOINT rightThumbIntermediate
                  {
                    OFFSET -0.31036620999999986 -0.08229339117999834 0.15440884469999996
                    CHANNELS 3 Yrotation Xrotation Zrotation
                    JOINT rightThumbDistal
                    {
                      OFFSET -0.21631306399999906 -0.08825326400000111 0.018656797720000014
                      CHANNELS 3 Yrotation Xrotation Zrotation
                      End Site
                      {
                        OFFSET -0.21631306399999906 -0.08825326400000111 0.018656797720000014
                      }
                    }
                  }
                }
              }
            }
          }
        }
      }
    }
  }
}
MOTION
Frames: 7
Frame Time: 0.03333333333333333
0 11.682712981546562 0 0 0 0 0 0 -5.826343164929014 -0.3712483961610101 -3.6333298826370974 5.838118207697276 0 0 0 0 0 0 0 0 5.826343164929014 0.3712483961610101 -3.6333298826370974 -5.838118207697276 0 0 0 0 0 0 0 -4.610651315171937 0 0 3.0831277533083026 0 0 0 0 0 1.5275236235667615 0 0 0 0 0 0 0 0 0 0 0 0 0 0 0 0 0 0 0 0 0 0 0 0 0 0 0 0 0 0 0 0 0 0 0 0 0 0 0 0 0 0 0 0 0 0 0 0 0 0 0 0 0 0 0 0 1.5275236235667615 0 0 0 0 0 0 0 0 0 0 0 0 0 0 1.5275236235667615 0 0 0 0 0 0 0 0 0 0 0 0 0 0 0 0 0 0 0 0 0 0 0 0 0 0 0 0 0 0 0 0 0 0 0 0 0 0 0 0 0 0 0 0 0 0 0 0 0 0 0 0 0 0 0
-0.47645076519936136 -8.928444654176472 -0.24911123892771952 0 0 0 115.19883788662442 -59.55628889085296 -97.82017952527666 8.627731853149388 49.19189668353314 -19.711810167523485 -2.368999768320375 25.264158828657305 1.5929858678344198 0 0 0 -179.268395812578 -76.85487078631222 179.68371813614235 -5.785711371879773 44.41326093624064 -5.896307359529709 2.364381973625454 25.264189039050397 -1.5976153467024063 0 0 0 -28.84816298694919 -1.7030528913307712 4.4586339730381885 1.9414744792867447 7.408432879908125 0.8673754415909787 0 0 0 -29.822135795788647 -6.0495673210765135 -18.27745646829126 -51.78339319187263 -5.898328104845123 -11.219856045961 -64.64636876791955 -11.966131818580777 -13.770441662563604 -24.79649143704597 0.7776285841510852 7.876111105150822 0 0 0 0 0 0 0 0 0 0 0 0 0 0 0 0 0 0 0 0 0 0 0 0 0 0 0 0 0 0 0 0 0 0 0 0 0 0 0 0 0 0 0 0 0 -0.0019014056921279653 -14.473882835345176 20.997418178489905 -23.157780735858285 -6.442081033563699 2.7459739813283135 0 0 0 0 0 0 0 0 0 25.823773478291667 3.5102883186477083 -9.569910386679354 -8.412790507640926 0.08769378681715889 -12.883309910797646 111.13500359298591 0.2757538373156421 -6.6436001753739955 -43.6404894625043 -62.9582060611379 46.58343635786388 0 0 0 0 0 0 0 0 0 0 0 0 0 0 0 0 0 0 0 0 0 0 0 0 0 0 0 0 0 0 0 0 0 0 0 0 0 0 0 0 0 0 0 0 0
-0.47645076519936136 -8.928444654176472 -0.24911123892771952 0 0 0 115.19883788662442 -59.55628889085296 -97.82017952527666 8.627729915712898 49.19189668353314 -19.71181139737713 -2.368999768320375 25.264158828657305 1.5929858678344198 0 0 0 -179.268395812578 -76.85487078631222 179.68371813614235 -5.785711371879773 44.41326093624064 -5.896307359529709 2.364381973625454 25.264189039050397 -1.5976153467024063 0 0 0 -28.84816298694919 -1.7030528913307712 4.4586339730381885 1.9414744792867447 7.408432879908125 0.8673754415909787 0 0 0 -29.822135795788647 -6.0495673210765135 -18.27745646829126 -51.78339319187263 -5.898328104845123 -11.219856045961 -64.86380793663413 -11.944487037795627 -13.611820916107657 -24.79649143704597 0.7776285841510852 7.876111105150822 0 0 0 0 0 0 0 0 0 0 0 0 0 0 0 0 0 0 0 0 0 0 0 0 0 0 0 0 0 0 0 0 0 0 0 0 0 0 0 0 0 0 0 0 0 0.05244015396603073 -14.453216242874761 20.781804592326022 -23.030798640224546 -6.5847406959741095 2.333946138137087 0 0 0 0 0 0 0 0 0 25.823776508636588 3.5102883186477083 -9.569910386679354 -8.412790507640926 0.08769378681715889 -12.883309910797646 111.13501119518922 0.2757538373156421 -6.6436001753739955 -42.79187991244415 -63.239359688331824 45.61493497974519 0 0 0 0 0 0 0 0 0 0 0 0 0 0 0 0 0 0 0 0 0 0 0 0 0 0 0 0 0 0 0 0 0 0 0 0 0 0 0 0 0 0 0 0 0
-0.47645076519936136 -8.928444654176472 -0.24911123892771952 0 0 0 115.19883788662442 -59.55628889085296 -97.82017952527666 8.627731853149388 49.19189668353314 -19.711810167523485 -2.368999768320375 25.264158828657305 1.5929858678344198 0 0 0 -179.268395812578 -76.85487078631222 179.68371813614235 -5.7857136375691285 44.413265717205846 -5.896308548447512 2.364381973625454 25.264189039050397 -1.5976153467024063 0 0 0 -28.84816298694919 -1.7030528913307712 4.4586339730381885 1.9414744792867447 7.408432879908125 0.8673754415909787 0 0 0 -29.822135795788647 -6.0495673210765135 -18.27745646829126 -51.78339319187263 -5.898328104845123 -11.219856045961 -65.08126544002847 -11.922239276554176 -13.45320993007807 -24.79649143704597 0.7776285841510852 7.876111105150822 0 0 0 0 0 0 0 0 0 0 0 0 0 0 0 0 0 0 0 0 0 0 0 0 0 0 0 0 0 0 0 0 0 0 0 0 0 0 0 0 0 0 0 0 0 0.10670575364372961 -14.432342633599616 20.566185202508464 -22.902639505962284 -6.726608331370249 1.921127789246126 0 0 0 0 0 0 0 0 0 25.823776508636588 3.5102891740261986 -9.569911798983822 -8.412790507640926 0.08769378681715889 -12.883309910797646 111.13500359298591 0.2757538373156421 -6.6436001753739955 -41.922328437360136 -63.514583458804296 44.62534216385359 0 0 0 0 0 0 0 0 0 0 0 0 0 0 0 0 0 0 0 0 0 0 0 0 0 0 0 0 0 0 0 0 0 0 0 0 0 0 0 0 0 0 0 0 0
-0.47645076519936136 -8.928444654176472 -0.24911123892771952 0 0 0 115.19883492716791 -59.55628889085296 -97.82017952527666 8.627729915712898 49.19189668353314 -19.71181139737713 -2.368999768320375 25.264158828657305 1.5929858678344198 0 0 0 -179.268395812578 -76.85487078631222 179.68371813614235 -5.785711371879773 44.41326093624064 -5.896307359529709 2.364381973625454 25.264189039050397 -1.5976153467024063 0 0 0 -28.84816298694919 -1.7030528913307712 4.4586339730381885 1.9414744792867447 7.408432879908125 0.8673754415909787 0 0 0 -29.82213877522596 -6.0495673210765135 -18.27745646829126 -51.7833980132622 -5.898331108957215 -11.219855204047606 -65.2987586638599 -11.899395660112711 -13.294627976932205 -24.79649143704597 0.7776285841510852 7.876111105150822 0 0 0 0 0 0 0 0 0 0 0 0 0 0 0 0 0 0 0 0 0 0 0 0 0 0 0 0 0 0 0 0 0 0 0 0 0 0 0 0 0 0 0 0 0 0.16089538803379175 -14.411272641146818 20.35057189757945 -22.77331005994856 -6.867669934055828 1.5075283799910753 0 0 0 0 0 0 0 0 0 25.823776508636588 3.5102883186477083 -9.569910386679354 -8.412790507640926 0.08769378681715889 -12.883309910797646 111.13501119518922 0.2757538373156421 -6.6436001753739955 -41.03161776713584 -63.7836103933994 43.61442768563498 0 0 0 0 0 0 0 0 0 0 0 0 0 0 0 0 0 0 0 0 0 0 0 0 0 0 0 0 0 0 0 0 0 0 0 0 0 0 0 0 0 0 0 0 0
-0.47645076519936136 -8.928444654176472 -0.24911123892771952 0 0 0 115.19886380558577 -59.55628215086747 -97.82020698674347 8.627731853149388 49.19189668353314 -19.711810167523485 -2.368999768320375 25.264158828657305 1.5929858678344198 0 0 0 -179.268395812578 -76.85487078631222 179.68371813614235 -5.785711371879773 44.41326093624064 -5.896307359529709 2.364381973625454 25.264190927200218 -1.5976152287389191 0 0 0 -28.84816298694919 -1.7030528913307712 4.4586339730381885 1.9414744792867447 7.408432879908125 0.8673754415909787 0 0 0 -29.822137285507324 -6.0495673210765135 -18.277458098770936 -51.7833980132622 -5.898328963162862 -11.219855204047606 -65.51626122038986 -11.875945865770591 -13.136068828447 -24.79649143704597 0.7776285841510852 7.876111105150822 0 0 0 0 0 0 0 0 0 0 0 0 0 0 0 0 0 0 0 0 0 0 0 0 0 0 0 0 0 0 0 0 0 0 0 0 0 0 0 0 0 0 0 0 0 0.21500716306836642 -14.3900001483849 20.13496213364895 -22.64281667106249 -7.007913176678575 1.0931560266975422 0 0 0 0 0 0 0 0 0 25.823773478291667 3.5102883186477083 -9.569910386679354 -8.412790507640926 0.08769378681715889 -12.883309910797646 111.13500359298591 0.2757538373156421 -6.6436001753739955 -40.119552474819315 -64.04615853780015 42.58200619731488 0 0 0 0 0 0 0 0 0 0 0 0 0 0 0 0 0 0 0 0 0 0 0 0 0 0 0 0 0 0 0 0 0 0 0 0 0 0 0 0 0 0 0 0 0
-0.47645076519936136 -8.928444654176472 -0.24911123892771952 0 0 0 115.19886246060523 -59.55628215086747 -97.8202060696676 8.627733282878955 49.19189668353314 -19.71181315992692 -2.368999768320375 25.264158828657305 1.5929858678344198 0 0 0 -179.268395812578 -76.85487078631222 179.68371713894882 -5.785713524953444 44.41327049817144 -5.896307850670795 2.364381973625454 25.264190927200218 -1.5976152287389191 0 0 0 -28.84816448325319 -1.7030527845619035 4.4586339730381885 1.9414744792867447 7.4084337408689045 0.8673754415909787 0 0 0 -29.82213877522596 -6.0495673210765135 -18.27745646829126 -51.78339319187263 -5.898328534003992 -11.219856887874387 -65.73377518022244 -11.851898769963995 -12.97754248727515 -24.79649143704597 0.7776285841510852 7.876111105150822 0 0 0 0 0 0 0 0 0 0 0 0 0 0 0 0 0 0 0 0 0 0 0 0 0 0 0 0 0 0 0 0 0 0 0 0 0 0 0 0 0 0 0 0 0 0.26903917733580807 -14.368526091629663 19.91935577196164 -22.511160477925014 -7.147322249829947 0.6780180701925992 0 0 0 0 0 0 0 0 0 25.823776508636588 3.5102883186477083 -9.569910386679354 -8.412790507640926 0.08769364007464157 -12.883311575361429 111.13501119518922 0.2757538373156421 -6.643601447449596 -39.185988632474555 -64.30197025985068 41.5279315244038 0 0 0 0 0 0 0 0 0 0 0 0 0 0 0 0 0 0 0 0 0 0 0 0 0 0 0 0 0 0 0 0 0 0 0 0 0 0 0 0 0 0 0 0 0
